<mxfile host="app.diagrams.net" modified="2024-07-17T09:59:04.471Z" agent="Mozilla/5.0 (Macintosh; Intel Mac OS X 10_15_7) AppleWebKit/537.36 (KHTML, like Gecko) Chrome/126.0.0.0 Safari/537.36" etag="nrh5wSS341jR-Too357V" version="24.4.4" type="github">
  <diagram name="Page-1" id="niAFsp3WCU0wCWim4Omd">
    <mxGraphModel dx="1207" dy="720" grid="1" gridSize="10" guides="1" tooltips="1" connect="1" arrows="1" fold="1" page="1" pageScale="1" pageWidth="827" pageHeight="1169" math="0" shadow="0">
      <root>
        <mxCell id="0" />
        <mxCell id="1" parent="0" />
      </root>
    </mxGraphModel>
  </diagram>
</mxfile>
